<?xml version="1.0" encoding="UTF-8" standalone="no"?>
<svg xmlns:dc="http://purl.org/dc/elements/1.1/" xmlns:cc="http://creativecommons.org/ns#" xmlns:rdf="http://www.w3.org/1999/02/22-rdf-syntax-ns#" xmlns:svg="http://www.w3.org/2000/svg" xmlns="http://www.w3.org/2000/svg" viewBox="0 0 682.66669 682.66669" height="36" width="36" xml:space="preserve" id="svg2" version="1.1">
  <metadata id="metadata8">
    <rdf:RDF>
      <cc:Work rdf:about="">
        <dc:format>image/svg+xml</dc:format>
        <dc:type rdf:resource="http://purl.org/dc/dcmitype/StillImage" />
      </cc:Work>
    </rdf:RDF>
  </metadata>
  <defs id="defs6" />
  <g transform="matrix(1.3333333,0,0,-1.3333333,0,682.66667)" id="g10">
    <g transform="scale(0.1)" id="g12">
      <path id="path14" style="fill:#ff1400;fill-opacity:1;fill-rule:nonzero;stroke:none" d="m 5019.34,5019.34 v -2411 c -935.2,132.09 -1872.14,232.75 -2785.59,301.72 -39.55,735.14 -53.44,1441.16 -40.55,2109.28 h 2826.14" />
      <path id="path16" style="fill:#36bff0;fill-opacity:1;fill-rule:nonzero;stroke:none" d="m 2491.56,100.664 c -106.88,843.191 -186.35,1665.656 -237.02,2456.806 907.11,-69.52 1837.14,-170.5 2764.8,-302.63 V 100.664 H 2491.56" />
      <path id="path18" style="fill:#63ff00;fill-opacity:1;fill-rule:nonzero;stroke:none" d="m 1843.13,5019.34 c -12.57,-660.92 0.71,-1358.41 38.81,-2084.2 -608.33,40.78 -1204.631,67.29 -1781.276,79.46 V 5019.34 H 1843.13" />
      <path id="path20" style="fill:#2ecc91;fill-opacity:1;fill-rule:nonzero;stroke:none" d="M 100.664,2664.52 C 683.578,2652.1 1286.79,2624.89 1902.23,2582.97 1952.34,1783.91 2031.61,952.93 2138.79,100.664 H 100.664 V 2664.52" />
    </g>
  </g>
</svg>