<?xml version="1.0" standalone="no"?>
<!DOCTYPE svg PUBLIC "-//W3C//DTD SVG 20010904//EN"
 "http://www.w3.org/TR/2001/REC-SVG-20010904/DTD/svg10.dtd">
<svg version="1.0" xmlns="http://www.w3.org/2000/svg"
 width="2083.000000pt" height="2083.000000pt" viewBox="0 0 2083.000000 2083.000000"
 preserveAspectRatio="xMidYMid meet">
<metadata>
Created by potrace 1.14, written by Peter Selinger 2001-2017
</metadata>
<g transform="translate(0.000000,2083.000000) scale(0.100000,-0.100000)"
fill="#000000" stroke="none">
<path d="M0 16577 l0 -4243 531 -12 c2008 -47 4194 -144 6447 -288 310 -19
565 -34 567 -32 2 2 -7 224 -20 493 -55 1093 -98 2293 -132 3660 -15 572 -18
1062 -18 2683 l0 1982 -3687 0 -3688 0 0 -4243z"/>
<path d="M8866 20733 c-3 -49 -9 -704 -12 -1458 -10 -2024 18 -3547 101 -5590
27 -660 82 -1785 87 -1790 2 -2 320 -29 708 -59 3396 -271 6991 -659 10319
-1117 398 -54 732 -99 742 -99 19 0 19 133 19 5100 l0 5100 -5979 0 -5978 0
-7 -87z"/>
<path d="M0 5425 l0 -5425 4318 0 4318 0 -78 637 c-386 3159 -687 6312 -880
9226 l-43 647 -30 0 c-16 0 -230 13 -475 30 -1521 101 -3379 195 -4950 250
-867 30 -1904 60 -2097 60 l-83 0 0 -5425z"/>
<path d="M9130 10374 c0 -57 93 -1365 140 -1979 194 -2514 448 -5035 775
-7705 41 -338 78 -632 81 -652 l6 -38 5349 0 5349 0 0 4560 c0 2508 -3 4560
-7 4560 -4 0 -331 45 -727 100 -3334 461 -6886 850 -10181 1115 -374 30 -704
57 -732 60 -52 5 -53 5 -53 -21z"/>
</g>
</svg>
